<svg width="21" height="20" viewBox="0 0 21 20" fill="none" xmlns="http://www.w3.org/2000/svg">
<ellipse cx="10.1011" cy="9.95088" rx="10.1011" ry="9.95088" fill="#4C6B8A"/>
<path d="M14.9558 12.1905C14.2296 12.1905 13.4429 12.0769 12.7772 11.8496H12.5957C12.4141 11.8496 12.2931 11.9064 12.172 12.02L10.8406 13.2702C9.14615 12.4178 7.69373 11.1108 6.84648 9.51974L8.17787 8.26959C8.35942 8.09912 8.41994 7.87182 8.2989 7.70134C8.11735 7.07627 7.99631 6.33755 7.99631 5.65565C7.99631 5.37153 7.69373 5.0874 7.39114 5.0874H5.27302C4.97043 5.0874 4.66785 5.37153 4.66785 5.65565C4.66785 10.9972 9.26718 15.3159 14.9558 15.3159C15.2584 15.3159 15.561 15.0317 15.561 14.7476V12.7587C15.561 12.4746 15.2584 12.1905 14.9558 12.1905ZM5.8782 6.2239H6.78596C6.84648 6.73532 6.96751 7.24674 7.08855 7.70134L6.36234 8.38324C6.12027 7.70134 5.93872 6.96262 5.8782 6.2239ZM14.3507 14.1794C13.5639 14.1225 12.7772 13.9521 12.051 13.7248L12.7772 13.0429C13.2613 13.1565 13.806 13.2702 14.3507 13.2702V14.1794ZM11.93 10.2016H13.1403C13.1403 9.44809 12.8215 8.72541 12.254 8.19257C11.6866 7.65974 10.9169 7.36039 10.1144 7.36039V8.49689C10.5959 8.49689 11.0577 8.6765 11.3982 8.9962C11.7387 9.3159 11.93 9.74951 11.93 10.2016ZM14.3507 10.2016H15.561C15.561 7.36039 13.1222 5.0874 10.1144 5.0874V6.2239C12.4504 6.2239 14.3507 8.00251 14.3507 10.2016Z" fill="#F6F7F1"/>
</svg>
