<svg width="30" height="26" viewBox="0 0 30 26" fill="none" xmlns="http://www.w3.org/2000/svg">
<mask id="mask0_123_6524" style="mask-type:alpha" maskUnits="userSpaceOnUse" x="0" y="0" width="30" height="26">
<path d="M15.2201 12.3067C15.2201 10.2459 15.2885 3.06222 15.4254 2.31111C15.5427 1.54074 15.7187 1.05926 15.9533 0.866667C16.4029 0.500742 17.1165 0.317779 18.0941 0.317779L18.1527 0H14.2084H10.264L10.3227 0.317779C10.7919 0.317779 11.1731 0.337038 11.4664 0.375556C11.7401 0.414074 11.9943 0.519999 12.2289 0.693333C12.4635 0.866666 12.6394 1.06889 12.7567 1.3C12.8545 1.53111 12.9327 1.90667 12.9914 2.42667C13.1087 3.27407 13.1673 10.4193 13.1673 12.3067L13.1966 15.6C12.3559 15.4652 11.3296 14.9259 10.1761 13.9822C9.00303 13.0193 7.97662 11.883 7.09685 10.5733C6.21707 9.24444 5.77718 8.06963 5.77718 7.04889C5.77718 6.72148 5.88471 6.48074 6.09976 6.32667C6.29527 6.17259 6.66673 6.09556 7.21415 6.09556L7.2728 5.77778H-2.28882e-05L0.0586281 6.09556C2.11144 6.09556 3.64616 6.79852 4.6628 8.20444C5.15156 8.89778 5.62078 9.62963 6.07044 10.4C6.5201 11.1511 7.20437 12.0274 8.12325 13.0289C8.17196 13.1648 8.45735 13.4269 8.85353 13.7419C9.61671 14.4148 10.5023 15.0101 11.4371 15.6C12.0236 15.8889 12.6101 16.0333 13.1966 16.0333V15.6H15.2201V12.3067Z" fill="white"/>
<path d="M25.9237 26C24.9266 26 23.6754 24.8541 22.17 22.5622C21.5248 21.5993 20.8503 20.6363 20.1465 19.6733C19.4622 18.7104 18.69 17.8822 17.8298 17.1889C16.9695 16.4956 16.1093 16.1393 15.2491 16.12V19.4711C15.2491 22.36 15.3859 24.0933 15.6596 24.6711C15.7769 24.9022 15.9529 25.1044 16.1875 25.2778C16.4221 25.4511 16.6763 25.557 16.95 25.5956C17.2432 25.6341 17.6245 25.6533 18.0937 25.6533L18.1523 26H10.2637L10.3223 25.6533C11.2999 25.6533 12.0134 25.4704 12.4631 25.1044C12.9519 24.7 13.1963 22.8222 13.1963 19.4711V12.3067C13.1963 10.2459 13.1278 3.06222 12.991 2.31111C12.8737 1.54074 12.6977 1.05926 12.4631 0.866667C12.0135 0.500742 11.2999 0.317779 10.3223 0.317779L10.2637 0H14.076H18.1523L18.0937 0.317779C17.6245 0.317779 17.2432 0.337038 16.95 0.375556C16.6763 0.414074 16.4221 0.519999 16.1875 0.693333C15.9529 0.866666 15.7769 1.06889 15.6596 1.3C15.5619 1.53111 15.4837 1.90667 15.425 2.42667C15.3077 3.27407 15.2491 10.4193 15.2491 12.3067V15.6C16.0898 15.4652 17.0868 14.9259 18.2403 13.9822C19.4133 13.0193 20.4398 11.883 21.3195 10.5733C22.1993 9.24444 22.6392 8.06963 22.6392 7.04889C22.6392 6.72148 22.5317 6.48074 22.3166 6.32667C22.1211 6.17259 21.7496 6.09556 21.2022 6.09556L21.1436 5.77778H28.4164L28.3577 6.09556C26.3049 6.09556 24.7702 6.79852 23.7536 8.20444C23.2648 8.89778 22.7956 9.62963 22.3459 10.4C21.8963 11.1511 21.212 12.0274 20.2931 13.0289C19.3938 14.0111 18.3185 14.897 17.0673 15.6867C18.9637 15.8022 20.5082 16.5244 21.7008 17.8533C22.4241 18.6237 23.1964 19.6541 24.0175 20.9444C24.8582 22.2348 25.5131 23.1689 25.9823 23.7467C27.0772 25.0178 28.3968 25.6533 29.9413 25.6533L30 26H25.9237Z" fill="white"/>
</mask>
<g mask="url(#mask0_123_6524)">
<rect x="-0.000366211" width="32.1172" height="26" fill="#4C6B8A"/>
</g>
</svg>
