<svg width="128" height="131" viewBox="0 0 128 131" fill="none" xmlns="http://www.w3.org/2000/svg">
<path d="M72.2049 36.2027C79.1736 48.0348 78.4632 61.2251 70.6176 65.6655C62.772 70.106 50.7638 64.1157 43.7951 52.2823C36.8264 40.449 37.5368 27.26 45.3824 22.8195C53.228 18.3791 65.2375 24.3706 72.2049 36.2027Z" stroke="#4C6B8A" stroke-width="2" stroke-linecap="round" stroke-linejoin="round"/>
<path d="M57.795 36.2028C50.8265 48.0349 51.5368 61.2252 59.3822 65.6657C67.2276 70.1061 79.2367 64.1146 86.2052 52.2824C93.1737 40.4503 92.4633 27.26 84.6167 22.8195C76.7738 18.3791 64.7635 24.3706 57.795 36.2028Z" stroke="#4C6B8A" stroke-width="2" stroke-linecap="round" stroke-linejoin="round"/>
<path d="M65 27.3252C67.6915 29.6871 70.1822 32.6791 72.2325 36.1836C79.1614 48.0253 78.4549 61.2263 70.6528 65.6703C69.0241 66.5987 67.2147 67.0716 65.3074 67.131" stroke="#4C6B8A" stroke-width="2" stroke-linecap="round" stroke-linejoin="round"/>
<path d="M67.1206 1.02051H53.8317C45.686 1.27039 36.5781 3.87528 27.2538 10.5928C20.8794 16.1029 8.71411 31.7904 11.0478 50.4598V52.2413C11.0478 52.7787 10.9611 53.3127 10.7912 53.8225L10.5119 54.6604C10.437 54.8848 10.3464 55.1037 10.2406 55.3152L8.45477 58.8869L6.51005 61.804L4.56533 65.0452L2.94472 67.6382L1.89388 69.4771C1.73052 69.763 1.5958 70.0643 1.49168 70.3767L1.1678 71.3483C1.05666 71.6817 1 72.0309 1 72.3824V72.4516C1 73.1142 1.2149 73.7589 1.61245 74.2889V74.2889C1.85013 74.6058 2.14705 74.8736 2.48673 75.0774L3.12232 75.4588C3.43514 75.6465 3.76757 75.7994 4.11366 75.9147L6.51005 76.7135L8.77889 77.3618V77.3618C10.0098 77.8893 10.5427 79.3442 9.94382 80.542L9.79028 80.8491C9.7643 80.901 9.74204 80.9548 9.72367 81.0099V81.0099C9.54859 81.5351 9.74671 82.1125 10.2074 82.4196L10.3995 82.5477L11.696 83.1959L12.2815 83.5863C12.5369 83.7565 12.756 83.9756 12.9262 84.231L13.0888 84.4749C13.2373 84.6977 13.3166 84.9594 13.3166 85.2272V85.5185C13.3166 85.6917 13.2478 85.8577 13.1254 85.9801L12.7383 86.3672C12.6918 86.4137 12.6408 86.4555 12.586 86.4921L12.1099 86.8095C11.8513 86.9819 11.696 87.2721 11.696 87.5828V87.5828C11.696 87.6827 11.7121 87.782 11.7437 87.8767L11.8836 88.2966C11.9734 88.5658 12.1246 88.8105 12.3253 89.0112L12.6683 89.3542V89.3542C12.883 89.5689 13.0617 89.8168 13.1975 90.0883L13.5584 90.8102C13.6125 90.9185 13.6407 91.0379 13.6407 91.1589V92.5955V99.6124C13.6407 99.9037 13.6588 100.195 13.7445 100.474C13.9968 101.294 14.6084 102.385 15.7406 103.466C20.1649 107.692 27.0983 107.227 33.1921 106.681C38.2542 106.228 43.9468 105.421 47.9975 104.071" stroke="#4C6B8A" stroke-width="2" stroke-linecap="round" stroke-linejoin="round"/>
<path d="M64.5276 91.7537C68.417 97.1557 79.8909 107.895 102.45 107.636" stroke="#4C6B8A" stroke-width="2" stroke-linecap="round" stroke-linejoin="round"/>
<path d="M64.5276 91.7537C62.6909 93.9145 58.0452 98.8195 54.1558 101.153" stroke="#4C6B8A" stroke-width="2" stroke-linecap="round" stroke-linejoin="round"/>
<path d="M66.7965 1L73.9271 1.34438C82.0728 1.59426 91.1807 4.19915 100.505 10.9167C106.879 16.4268 119.045 32.1143 116.711 50.7836V52.5652C116.711 53.1026 116.798 53.6365 116.968 54.1464L117.247 54.9843C117.322 55.2087 117.412 55.4275 117.518 55.6391L119.304 59.2108L121.249 62.1279L123.193 65.3691L124.814 67.962L125.865 69.801C126.028 70.0869 126.163 70.3882 126.267 70.7006L126.591 71.6722C126.702 72.0056 126.759 72.3548 126.759 72.7062V72.7755C126.759 73.438 126.544 74.0827 126.146 74.6128V74.6128C125.909 74.9297 125.612 75.1975 125.272 75.4013L124.636 75.7827C124.324 75.9704 123.991 76.1232 123.645 76.2386L121.249 77.0374L118.98 77.6856V77.6856C117.749 78.2132 117.216 79.668 117.815 80.8658L117.969 81.1729C117.994 81.2249 118.017 81.2786 118.035 81.3337V81.3337C118.21 81.859 118.012 82.4364 117.551 82.7435L117.359 82.8716L116.063 83.5198L115.477 83.9102C115.222 84.0804 115.003 84.2995 114.833 84.5549L114.67 84.7988C114.521 85.0215 114.442 85.2833 114.442 85.551V85.8424C114.442 86.0155 114.511 86.1816 114.633 86.304L115.02 86.6911C115.067 86.7376 115.118 86.7794 115.173 86.8159L115.649 87.1334C115.908 87.3057 116.063 87.5959 116.063 87.9067V87.9067C116.063 88.0066 116.047 88.1058 116.015 88.2006L115.875 88.6204C115.785 88.8897 115.634 89.1344 115.434 89.3351L115.09 89.6781V89.6781C114.876 89.8928 114.697 90.1407 114.561 90.4122L114.2 91.1341C114.146 91.2423 114.118 91.3617 114.118 91.4828V92.9193V99.9363C114.118 100.228 114.099 100.519 114.019 100.799C113.528 102.523 111.654 105.501 106.594 107.043C104.944 107.546 103.203 107.636 101.477 107.636V107.636" stroke="#4C6B8A" stroke-width="2" stroke-linecap="round" stroke-linejoin="round"/>
<path d="M93.0503 107.96L97.2639 130" stroke="#4C6B8A" stroke-width="2" stroke-linecap="round" stroke-linejoin="round"/>
<path d="M31.4673 128.704L35.6809 106.663" stroke="#4C6B8A" stroke-width="2" stroke-linecap="round" stroke-linejoin="round"/>
</svg>
