<svg width="21" height="21" viewBox="0 0 21 21" fill="none" xmlns="http://www.w3.org/2000/svg">
<path d="M10.6609 0.0566406C5.11691 0.0566406 0.617432 4.66359 0.617432 10.34C0.617432 16.0164 5.11691 20.6234 10.6609 20.6234C16.2049 20.6234 20.7044 16.0164 20.7044 10.34C20.7044 4.66359 16.2049 0.0566406 10.6609 0.0566406ZM15.3211 7.04934C15.1704 8.67411 14.5176 12.6229 14.1862 14.4431C14.0456 15.2143 13.7643 15.4714 13.5032 15.5023C12.9207 15.5537 12.4788 15.1115 11.9163 14.731C11.0325 14.1346 10.5303 13.7644 9.67664 13.1885C8.68234 12.5201 9.32512 12.1499 9.8976 11.5535C10.0483 11.3992 12.6194 9.00318 12.6696 8.78723C12.6766 8.75452 12.6756 8.72056 12.6669 8.68831C12.6581 8.65605 12.6418 8.62647 12.6194 8.60213C12.5591 8.55071 12.4788 8.57128 12.4085 8.58156C12.3181 8.60213 10.912 9.55848 8.17012 11.4506C7.76838 11.7283 7.40682 11.8722 7.08543 11.862C6.72386 11.8517 6.04091 11.6563 5.52869 11.4815C4.89595 11.2758 4.40382 11.1627 4.44399 10.8028C4.46408 10.6177 4.71517 10.4326 5.18721 10.2372C8.1199 8.93119 10.0683 8.06739 11.0426 7.65606C13.8346 6.46318 14.4071 6.25752 14.7888 6.25752C14.8691 6.25752 15.0599 6.27808 15.1805 6.38092C15.2809 6.46318 15.311 6.5763 15.3211 6.65857C15.311 6.72027 15.3311 6.90537 15.3211 7.04934Z" fill="#4C6B8A"/>
</svg>
