<svg width="106" height="131" viewBox="0 0 106 138" fill="none" xmlns="http://www.w3.org/2000/svg">
<path d="M84.0604 16.8766C75.5668 9.48613 52.4247 -0.860563 27.8044 16.8766C21.2963 22.5023 8.87588 38.5188 11.2585 57.5796V59.4156C11.2585 59.953 11.1718 60.4869 11.0019 60.9968L10.709 61.8754C10.6342 62.0998 10.5435 62.3187 10.4377 62.5303L8.61111 66.1835L6.6256 69.1618L4.6401 72.4709L2.98551 75.1183L1.90747 77.0048C1.74411 77.2907 1.60939 77.592 1.50527 77.9044L1.17132 78.9063C1.05785 79.2467 1 79.6031 1 79.962V80.0326C1 80.7091 1.21941 81.3673 1.62529 81.9085V81.9085C1.86796 82.2321 2.1711 82.5055 2.51791 82.7136L3.1767 83.1088C3.48952 83.2965 3.82195 83.4494 4.16804 83.5648L6.6256 84.384L8.94203 85.0458V85.0458C10.1987 85.5844 10.7428 87.0698 10.1314 88.2927L9.97462 88.6062C9.94809 88.6593 9.92537 88.7141 9.90661 88.7704V88.7704C9.72787 89.3067 9.93014 89.8962 10.4004 90.2097L10.5966 90.3405L11.9203 91.0023L12.5181 91.4009C12.7788 91.5747 13.0025 91.7984 13.1763 92.0591L13.3423 92.3081C13.494 92.5356 13.5749 92.8028 13.5749 93.0762V93.3736C13.5749 93.5504 13.5047 93.7199 13.3797 93.8449L12.9845 94.2401C12.937 94.2876 12.8849 94.3303 12.829 94.3676L12.3428 94.6916C12.0789 94.8676 11.9203 95.1639 11.9203 95.4812V95.4812C11.9203 95.5832 11.9367 95.6845 11.969 95.7813L12.1119 96.2099C12.2035 96.4848 12.3579 96.7346 12.5628 96.9395L12.913 97.2898V97.2898C13.1322 97.5089 13.3146 97.762 13.4532 98.0393L13.8217 98.7763C13.877 98.8868 13.9058 99.0087 13.9058 99.1323V100.599V107.772C13.9058 108.064 13.9241 108.355 14.0091 108.634C14.6224 110.642 17.3545 114.259 24.4952 115.49" stroke="#4C6B8A" stroke-width="2" stroke-linecap="round" stroke-linejoin="round"/>
<path d="M89.3551 22.1714C98.2899 31.3268 110.799 56.1897 89.3551 82.3984L87.3696 84.3839L85.0532 86.3694L84.7626 86.6185C83.4159 87.7728 81.9274 88.7432 80.4203 89.6786V89.6786V89.6786C79.0721 90.5155 77.6998 91.3173 76.2413 91.9424L76.1184 91.995L72.8092 93.3187L69.7513 94.6292C68.7305 95.0667 67.9011 95.8362 67.2848 96.7601C62.9487 103.261 51.2401 114.092 32.1063 114.828" stroke="#4C6B8A" stroke-width="2" stroke-linecap="round" stroke-linejoin="round"/>
<path d="M89.3551 82.3984L93.657 104.901" stroke="#4C6B8A" stroke-width="2" stroke-linecap="round" stroke-linejoin="round"/>
<path d="M94.9807 114.498L99.2826 137" stroke="#4C6B8A" stroke-width="2" stroke-linecap="round" stroke-linejoin="round"/>
<path d="M52.954 109.203L48.6521 136.669" stroke="#4C6B8A" stroke-width="2" stroke-linecap="round" stroke-linejoin="round"/>
<circle cx="55.9324" cy="48.9759" r="5.63285" stroke="#4C6B8A" stroke-width="2"/>
<path d="M50.6334 60.5488C53.3088 61.8813 56.3711 62.2179 59.2721 61.4983C62.173 60.7787 64.723 59.0499 66.4655 56.6216C68.2079 54.1932 69.029 51.2238 68.7817 48.2452C68.5344 45.2666 67.2349 42.4734 65.1158 40.3656C62.9967 38.2578 60.1965 36.9733 57.2166 36.7419C54.2367 36.5106 51.2718 37.3476 48.8528 39.1031C46.4338 40.8585 44.7187 43.4178 44.0147 46.3225C43.3107 49.2272 43.6636 52.2877 45.0104 54.9559" stroke="#4C6B8A" stroke-width="2" stroke-linecap="round" stroke-linejoin="round"/>
<path d="M65.541 31.6893C61.205 29.3896 56.172 28.774 51.4095 29.9608C46.6471 31.1477 42.4916 34.0533 39.7419 38.1188C36.9923 42.1844 35.8427 47.1229 36.5142 51.9849C37.1856 56.8468 39.6308 61.2889 43.3794 64.457C47.1281 67.6251 51.9156 69.2956 56.8214 69.1472C61.7273 68.9988 66.4051 67.0421 69.9554 63.6532C73.5058 60.2644 75.678 55.6826 76.0544 50.789C76.4308 45.8954 74.9849 41.0353 71.9945 37.1434" stroke="#4C6B8A" stroke-width="2" stroke-linecap="round" stroke-linejoin="round"/>
<path d="M44.8879 74.4196C51.3479 77.1275 58.5905 77.3044 65.175 74.915C71.7594 72.5257 77.2031 67.7452 80.4232 61.5246C83.6432 55.3041 84.4036 48.0993 82.553 41.3436C80.7025 34.5879 76.3766 28.7764 70.436 25.0652C64.4954 21.354 57.3754 20.0151 50.4924 21.3148C43.6095 22.6145 37.4681 26.4576 33.2899 32.0796C29.1117 37.7016 27.2029 44.6904 27.9433 51.6557C28.6838 58.6211 32.0191 65.0524 37.2858 69.6704" stroke="#4C6B8A" stroke-width="2" stroke-linecap="round" stroke-linejoin="round"/>
<path d="M31.9291 22.3586C25.0928 28.5273 20.8758 37.0779 20.1428 46.2566C19.4099 55.4354 22.2165 64.5469 27.9872 71.7223C33.7579 78.8977 42.0552 83.5934 51.1776 84.8463C60.3 86.0992 69.556 83.8143 77.0475 78.4603C84.539 73.1063 89.6981 65.089 91.4669 56.0524C93.2356 47.0159 91.48 37.645 86.5599 29.8617C81.6399 22.0783 73.9283 16.4723 65.0068 14.1934C56.0852 11.9145 46.6298 13.1353 38.5797 17.6055" stroke="#4C6B8A" stroke-width="2" stroke-linecap="round" stroke-linejoin="round"/>
<path d="M56.2633 30.1135V37.3937" stroke="#4C6B8A" stroke-width="2" stroke-linecap="round" stroke-linejoin="round"/>
<path d="M28.4662 48.9758H37.07" stroke="#4C6B8A" stroke-width="2" stroke-linecap="round" stroke-linejoin="round"/>
<path d="M62.5507 67.5073L65.198 73.7948" stroke="#4C6B8A" stroke-width="2" stroke-linecap="round" stroke-linejoin="round"/>
<path d="M55.9324 13.8984V21.1786" stroke="#4C6B8A" stroke-width="2" stroke-linecap="round" stroke-linejoin="round"/>
<path d="M55.9324 76.1111V84.4363" stroke="#4C6B8A" stroke-width="2" stroke-linecap="round" stroke-linejoin="round"/>
</svg>
