<svg width="21" height="21" viewBox="0 0 21 21" fill="none" xmlns="http://www.w3.org/2000/svg">
<path d="M10.5239 0.0566406C4.97701 0.0566406 0.480469 4.66059 0.480469 10.34C0.480469 16.0194 4.97701 20.6234 10.5239 20.6234C16.0709 20.6234 20.5674 16.0194 20.5674 10.34C20.5674 4.66059 16.0709 0.0566406 10.5239 0.0566406ZM14.3865 11.6586C14.3865 11.6586 15.2747 12.5563 15.4934 12.973C15.4996 12.9816 15.5028 12.9901 15.5049 12.9944C15.5938 13.1476 15.6147 13.2665 15.5708 13.3554C15.4976 13.5032 15.2465 13.5761 15.1607 13.5825H13.5914C13.4826 13.5825 13.2545 13.5536 12.9783 13.3586C12.7659 13.2065 12.5567 12.9569 12.3527 12.7138C12.0482 12.3517 11.7846 12.0389 11.5189 12.0389C11.4851 12.0389 11.4516 12.0443 11.4195 12.055C11.2186 12.1214 10.9612 12.4149 10.9612 13.1969C10.9612 13.4411 10.7729 13.5814 10.6401 13.5814H9.92133C9.67652 13.5814 8.40121 13.4936 7.27132 12.2735C5.88825 10.7792 4.64328 7.78203 4.63282 7.75418C4.55435 7.56029 4.71651 7.45639 4.89332 7.45639H6.4783C6.68964 7.45639 6.75868 7.58814 6.80681 7.7049C6.8633 7.84094 7.07045 8.38189 7.41046 8.99032C7.96181 9.98224 8.29973 10.385 8.57069 10.385C8.6215 10.3844 8.6714 10.3712 8.71611 10.3464C9.06973 10.1451 9.00382 8.85428 8.98812 8.58649C8.98812 8.53614 8.98708 8.00912 8.80609 7.75632C8.67636 7.57315 8.45561 7.50352 8.3217 7.47781C8.3759 7.40123 8.44731 7.33914 8.52989 7.29678C8.77261 7.17252 9.20992 7.15431 9.64409 7.15431H9.88576C10.3565 7.16074 10.4779 7.1918 10.6484 7.23572C10.9937 7.32035 11.001 7.54851 10.9707 8.3294C10.9612 8.55114 10.9518 8.8018 10.9518 9.09744C10.9518 9.16171 10.9487 9.23027 10.9487 9.30311C10.9382 9.70052 10.9257 10.1515 11.1998 10.3368C11.2355 10.3598 11.2768 10.372 11.319 10.3722C11.4143 10.3722 11.7009 10.3722 12.4772 9.00854C12.7166 8.56962 12.9246 8.11353 13.0997 7.64384C13.1154 7.61599 13.1614 7.5303 13.2158 7.49709C13.2559 7.47614 13.3005 7.46548 13.3455 7.46603H15.2088C15.4118 7.46603 15.5509 7.49709 15.5771 7.57743C15.6231 7.7049 15.5687 8.09374 14.7181 9.27312L14.3384 9.78621C13.5673 10.821 13.5673 10.8735 14.3865 11.6586Z" fill="#4C6B8A"/>
</svg>
