<svg width="20" height="20" viewBox="0 0 20 20" fill="none" xmlns="http://www.w3.org/2000/svg">
<g clip-path="url(#clip0_123_6503)">
<circle cx="10" cy="10" r="9" fill="#F6F7F1"/>
<path d="M6.66663 6.3576C6.75956 6.29866 6.86564 6.26363 6.97539 6.25566C7.08515 6.24768 7.19518 6.267 7.29565 6.31189C7.39613 6.35678 7.48393 6.42585 7.55122 6.51293C7.61851 6.6 7.6632 6.70238 7.68129 6.81093L7.86796 7.9256C7.88927 8.05246 7.87341 8.18278 7.82231 8.30084C7.77121 8.41889 7.68704 8.51964 7.57996 8.59093L6.91196 9.03627C6.74884 8.48344 6.66622 7.90999 6.66663 7.3336V6.3576ZM12.6666 13.3336C12.0902 13.334 11.5168 13.2514 10.964 13.0883L11.4093 12.4216C11.4804 12.3143 11.5811 12.2298 11.6992 12.1785C11.8172 12.1272 11.9476 12.1111 12.0746 12.1323L13.1893 12.3189C13.2978 12.337 13.4002 12.3817 13.4873 12.449C13.5744 12.5163 13.6434 12.6041 13.6883 12.7046C13.7332 12.8051 13.7525 12.9151 13.7446 13.0248C13.7366 13.1346 13.7016 13.2407 13.6426 13.3336H12.6666Z" fill="#4C6B8A"/>
<path fill-rule="evenodd" clip-rule="evenodd" d="M1.02846e-05 9.99956C0.000109895 7.76468 0.748851 5.59424 2.12673 3.83466C3.50461 2.07508 5.43221 0.82777 7.60188 0.291816C9.77154 -0.244138 12.0582 -0.0378465 14.0969 0.877766C16.1356 1.79338 17.8089 3.36553 18.8496 5.34331C19.8903 7.32109 20.2385 9.59049 19.8386 11.7893C19.4387 13.9881 18.3138 15.9896 16.6434 17.4743C14.973 18.959 12.8533 19.8414 10.6228 19.9806C8.39226 20.1198 6.17938 19.5078 4.33734 18.2422L0.96401 19.9289C0.839005 19.9908 0.697721 20.012 0.560057 19.9894C0.422393 19.9668 0.295287 19.9016 0.196641 19.8029C0.0979954 19.7043 0.0327809 19.5772 0.0101833 19.4395C-0.0124143 19.3019 0.0087436 19.1606 0.0706769 19.0356L1.75734 15.6622C0.61007 13.9969 -0.00289565 12.0218 1.02846e-05 9.99956ZM5.64001 5.43956L5.91468 5.25556C6.19253 5.07049 6.51228 4.95792 6.84479 4.9281C7.1773 4.89829 7.51199 4.95218 7.81833 5.08487C8.12467 5.21757 8.39292 5.42483 8.59863 5.68777C8.80433 5.95071 8.94095 6.26096 8.99601 6.59023L9.18268 7.70623C9.24604 8.08641 9.19821 8.4768 9.04493 8.83044C8.89165 9.18407 8.63945 9.48588 8.31868 9.69956L7.44134 10.2836C7.97901 11.2341 8.76476 12.0208 9.71468 12.5596L10.3013 11.6822C10.5149 11.3617 10.8165 11.1096 11.1699 10.9564C11.5233 10.8031 11.9134 10.7551 12.2933 10.8182L13.4093 11.0049C13.7386 11.06 14.0489 11.1966 14.3118 11.4023C14.5747 11.608 14.782 11.8762 14.9147 12.1826C15.0474 12.4889 15.1013 12.8236 15.0715 13.1561C15.0417 13.4886 14.9291 13.8084 14.744 14.0862L14.56 14.3622C14.4996 14.4559 14.4167 14.5329 14.3189 14.5862C14.2211 14.6396 14.1114 14.6675 14 14.6676H12.6667C11.7035 14.6676 10.7498 14.4778 9.86002 14.1092C8.97021 13.7406 8.16174 13.2003 7.48075 12.5192C6.79977 11.8381 6.25963 11.0295 5.89118 10.1396C5.52272 9.24977 5.33317 8.29603 5.33334 7.33289V5.99956C5.33353 5.88802 5.3617 5.7783 5.41528 5.68046C5.46885 5.58263 5.54613 5.4998 5.64001 5.43956Z" fill="#4C6B8A"/>
</g>
<defs>
<clipPath id="clip0_123_6503">
<rect width="20" height="20" fill="white"/>
</clipPath>
</defs>
</svg>
